<?xml version="1.0" standalone="no"?>
<!DOCTYPE svg PUBLIC "-//W3C//DTD SVG 20010904//EN"
 "http://www.w3.org/TR/2001/REC-SVG-20010904/DTD/svg10.dtd">
<svg version="1.0" xmlns="http://www.w3.org/2000/svg"
 width="1024.000000pt" height="1024.000000pt" viewBox="0 0 1024.000000 1024.000000"
 preserveAspectRatio="xMidYMid meet">
<metadata>
Created by potrace 1.11, written by Peter Selinger 2001-2013
</metadata>
<g transform="translate(0.000000,1024.000000) scale(0.100000,-0.100000)"
fill="#000000" stroke="none">
<path d="M4596 9393 c-88 -11 -280 -49 -331 -66 -5 -2 -23 -8 -40 -12 -107
-29 -329 -128 -455 -204 -158 -95 -497 -338 -508 -363 -2 -4 -8 -8 -13 -8 -8
0 -46 -30 -83 -66 -6 -6 -22 -16 -34 -23 -12 -7 -20 -16 -17 -22 4 -5 3 -8 -2
-7 -10 3 -32 -14 -70 -55 l-27 -27 -26 25 c-37 36 -88 41 -149 14 -29 -12 -48
-26 -44 -32 3 -6 1 -7 -5 -3 -8 4 -16 -3 -22 -18 -5 -14 -12 -26 -15 -26 -4 0
-3 6 1 13 4 6 -5 1 -19 -12 -15 -13 -24 -28 -20 -34 3 -6 1 -7 -6 -3 -6 4 -14
-1 -19 -14 -4 -12 -12 -22 -17 -23 -6 -1 -9 -5 -7 -10 1 -4 -2 -6 -6 -5 -13 4
-81 -69 -74 -78 4 -4 2 -4 -4 -1 -12 7 -47 -25 -39 -36 3 -4 2 -5 -1 -3 -9 6
-50 -37 -46 -49 2 -5 0 -7 -4 -3 -4 4 -22 -8 -40 -28 -21 -22 -39 -32 -46 -28
-8 5 -7 0 2 -11 9 -11 10 -16 2 -11 -8 5 -15 -1 -21 -16 -6 -13 -10 -19 -10
-14 -1 5 -12 -1 -26 -14 -13 -12 -22 -27 -18 -33 3 -6 1 -7 -6 -3 -6 4 -14 0
-17 -9 -4 -9 -13 -14 -20 -11 -8 3 -11 0 -8 -9 3 -7 -4 -19 -16 -25 -11 -6
-17 -16 -14 -22 4 -7 3 -8 -5 -4 -7 4 -15 -2 -20 -16 -6 -13 -10 -19 -10 -14
-1 5 -12 -1 -26 -14 -13 -12 -22 -27 -19 -32 3 -5 2 -7 -3 -6 -11 3 -68 -51
-68 -65 0 -7 -6 -12 -12 -12 -16 0 -78 -67 -75 -79 2 -5 -5 -3 -14 5 -11 8
-15 9 -11 2 5 -8 -19 -39 -65 -84 -40 -39 -72 -75 -70 -80 1 -5 -1 -8 -5 -7
-11 4 -73 -59 -66 -66 4 -3 0 -6 -7 -6 -22 0 -151 -140 -172 -188 -26 -59 -19
-103 26 -152 32 -35 34 -42 30 -92 -4 -54 -5 -59 -23 -139 -16 -68 -68 -200
-99 -250 -16 -24 -31 -52 -35 -61 -5 -15 -16 -9 -63 37 -36 34 -66 55 -81 55
-17 0 -90 -68 -275 -253 -139 -139 -259 -260 -266 -269 -17 -21 -5 -46 47 -98
20 -20 38 -41 41 -46 3 -5 9 -8 14 -6 5 2 3 -4 -4 -13 -7 -9 -9 -15 -3 -13 6
2 23 -8 39 -22 16 -14 32 -26 36 -25 10 0 43 -48 40 -58 -1 -5 2 -6 7 -3 5 3
138 -123 295 -280 222 -222 292 -286 312 -286 36 0 544 509 544 545 0 17 -18
43 -57 82 -53 51 -56 57 -39 67 10 6 27 19 37 29 11 11 19 17 19 15 0 -2 26 8
58 23 31 16 84 36 117 45 33 9 74 21 90 26 17 5 57 12 90 16 33 4 67 8 75 9 8
1 36 -17 62 -41 37 -35 55 -44 83 -44 63 0 99 25 239 164 76 75 141 136 145
136 10 0 61 -50 61 -60 0 -6 7 -10 15 -10 8 0 15 -3 15 -8 0 -4 17 -24 38 -44
20 -20 48 -48 62 -63 14 -14 38 -38 54 -53 38 -35 84 -83 118 -121 15 -17 30
-31 32 -31 5 0 79 -75 128 -130 15 -16 30 -30 33 -30 3 0 18 -14 33 -31 15
-16 47 -50 71 -74 40 -40 43 -46 30 -62 -13 -16 -12 -17 4 -4 15 12 21 10 52
-20 19 -19 35 -43 35 -54 0 -17 2 -17 10 -5 8 13 10 12 10 -3 0 -10 3 -16 8
-14 4 2 18 -6 32 -19 13 -13 19 -24 12 -24 -6 0 -12 -4 -12 -9 0 -5 10 -7 22
-3 14 3 19 2 14 -6 -4 -7 -1 -12 8 -12 9 0 16 -5 16 -11 0 -5 -5 -7 -12 -3 -7
4 -8 3 -4 -5 4 -6 12 -9 17 -6 5 4 16 -1 25 -9 8 -9 12 -16 7 -17 -4 0 2 -4
15 -10 14 -5 20 -13 16 -20 -4 -7 -3 -9 3 -6 12 8 56 -36 46 -46 -3 -4 4 -7
17 -7 13 0 21 -2 18 -5 -7 -7 78 -95 92 -95 5 0 10 -4 10 -9 0 -12 139 -151
152 -151 5 0 8 -7 4 -15 -3 -8 0 -14 7 -12 7 1 11 -4 9 -11 -1 -8 2 -11 8 -7
5 3 10 1 10 -4 0 -6 7 -11 16 -11 10 0 14 -5 10 -16 -3 -8 -2 -12 4 -9 6 3 10
1 10 -4 0 -6 7 -11 16 -11 8 0 13 -4 10 -8 -3 -5 4 -14 14 -22 10 -8 16 -18
13 -23 -3 -6 -2 -7 4 -4 11 7 56 -36 48 -46 -3 -4 -2 -5 1 -2 9 6 94 -81 94
-96 0 -7 3 -10 6 -6 8 8 260 -244 256 -255 -1 -5 1 -7 6 -4 12 7 73 -60 64
-70 -4 -4 -2 -5 3 -1 6 3 62 -46 123 -109 62 -63 116 -114 120 -114 4 -1 21
-18 37 -39 17 -21 45 -49 62 -62 18 -13 35 -32 38 -41 4 -10 12 -18 20 -18 8
0 17 -9 20 -20 3 -11 14 -20 22 -20 9 0 14 -3 10 -6 -7 -7 38 -54 53 -54 5 0
10 -3 10 -8 0 -9 77 -92 86 -92 3 0 18 -13 32 -30 15 -16 32 -35 38 -42 7 -7
651 -652 1433 -1432 781 -781 1436 -1437 1455 -1458 20 -21 40 -38 45 -38 6 0
15 -9 21 -20 6 -11 15 -20 21 -20 5 0 19 -9 31 -20 12 -11 30 -20 39 -20 10 0
21 -4 24 -10 8 -13 175 -13 175 0 0 6 6 10 13 10 18 0 67 24 67 33 0 4 4 7 10
7 18 0 339 329 358 367 11 21 25 63 32 94 25 111 -15 203 -146 334 -46 46 -84
88 -84 94 0 6 -4 11 -10 11 -13 0 -2750 2737 -2750 2750 0 6 -5 10 -11 10 -13
0 -69 58 -69 71 0 5 -7 9 -15 9 -9 0 -24 13 -33 30 -9 16 -21 30 -26 30 -12 0
-146 137 -146 150 0 5 -5 10 -11 10 -14 0 -149 137 -149 151 0 5 -5 9 -11 9
-14 0 -79 67 -71 74 3 3 0 6 -7 6 -14 0 -71 57 -71 71 0 5 -7 9 -16 9 -10 0
-14 6 -11 14 4 10 1 13 -9 9 -10 -4 -17 2 -21 16 -3 11 -12 21 -20 21 -8 0
-11 5 -8 10 3 6 0 10 -8 10 -14 0 -32 27 -29 42 1 4 -4 5 -12 2 -7 -3 -16 2
-20 11 -3 9 -2 14 2 11 4 -2 8 9 9 26 0 20 -2 26 -7 17 -5 -7 -6 -17 -4 -21 3
-4 -2 -8 -11 -8 -11 0 -15 5 -11 15 3 10 -6 20 -30 31 -27 13 -32 19 -23 30 6
7 16 12 22 10 7 -1 8 -1 4 2 -5 2 -13 16 -18 30 -8 19 -12 23 -18 13 -6 -9
-11 -10 -15 -3 -4 6 2 15 11 21 11 6 13 11 5 11 -8 0 -10 5 -6 13 6 9 4 9 -7
0 -20 -19 -34 -15 -17 5 25 29 29 40 13 38 -8 -1 -18 -6 -22 -11 -4 -4 -2 -5
6 0 9 5 12 3 9 -6 -3 -8 -11 -13 -17 -11 -7 1 -10 -2 -7 -7 3 -5 -1 -12 -10
-15 -11 -4 -15 -2 -11 8 9 22 -15 65 -35 63 -9 -1 -14 -5 -12 -9 3 -5 10 -5
16 -2 6 4 8 2 5 -3 -4 -6 0 -14 9 -17 12 -5 14 -10 5 -20 -6 -7 -10 -15 -8
-17 1 -3 -5 3 -13 12 -9 9 -22 18 -30 22 -11 4 -11 6 3 6 10 1 15 6 12 12 -4
6 -13 8 -21 5 -8 -3 -13 0 -11 6 1 7 -3 12 -8 13 -16 0 -65 42 -65 55 0 6 -5
8 -10 5 -6 -4 -9 -3 -8 2 2 4 1 8 -2 8 -3 0 -12 6 -20 13 -8 7 -24 19 -35 26
-17 12 -18 16 -5 32 12 16 12 17 0 7 -19 -17 -33 -16 -27 2 4 8 1 17 -5 21 -7
4 -8 3 -4 -4 4 -7 2 -12 -3 -12 -10 0 -15 14 -12 32 0 4 -6 5 -14 2 -9 -4 -19
4 -26 20 -7 14 -16 26 -21 26 -12 0 -148 137 -148 149 0 6 -5 11 -11 11 -11 0
-72 61 -98 98 -8 12 -18 19 -23 16 -4 -3 -13 6 -19 19 -6 13 -24 31 -40 41
-16 9 -29 24 -29 32 0 8 -7 14 -16 14 -8 0 -12 5 -9 10 3 6 -1 10 -10 10 -11
0 -15 5 -11 16 3 8 2 12 -4 9 -6 -3 -10 -1 -10 4 0 6 -3 10 -7 9 -5 -2 -10 2
-12 7 -2 6 -17 21 -34 35 -52 42 -147 139 -147 150 0 5 -5 10 -11 10 -14 0
-149 136 -149 150 0 5 -5 10 -11 10 -13 0 -89 78 -89 91 0 5 -7 9 -15 9 -9 0
-24 13 -33 30 -9 16 -21 30 -25 30 -11 0 -147 139 -147 150 0 6 -5 10 -11 10
-14 0 -149 136 -149 150 0 5 -7 10 -15 10 -8 0 -15 4 -15 8 0 5 -11 15 -25 22
-14 7 -25 17 -25 21 0 4 48 55 106 114 101 102 120 130 130 185 9 47 -8 73
-119 185 -62 62 -151 153 -199 203 -49 49 -88 88 -88 85 0 -2 -6 2 -14 9 -10
9 -11 15 -2 20 7 5 6 8 -5 8 -9 0 -23 8 -32 18 -20 22 -22 36 -4 26 9 -5 9 -4
0 6 -15 16 -6 40 16 41 9 0 11 3 5 5 -7 3 0 28 20 69 16 35 33 62 36 60 4 -2
7 2 7 10 0 22 35 95 45 95 5 0 6 5 3 10 -3 6 0 13 9 16 8 3 12 12 10 19 -3 7
0 16 5 20 6 3 9 11 6 16 -4 5 2 9 12 10 10 0 13 3 6 6 -38 15 237 322 390 436
20 16 48 38 61 50 13 12 34 29 46 37 12 8 42 30 66 48 23 17 47 32 52 32 4 0
17 8 28 18 11 9 30 23 42 30 189 108 345 166 557 208 17 3 108 8 202 11 171 6
202 13 184 41 -15 25 -209 84 -320 97 -30 4 -63 9 -75 11 -50 11 -300 9 -400
-3z m952 -3911 c15 11 15 11 4 -3 -10 -13 -10 -18 1 -28 8 -6 16 -8 19 -5 3 2
8 -2 11 -10 3 -8 -1 -17 -11 -21 -15 -5 -26 4 -22 20 1 7 -26 35 -35 35 -3 0
-3 -5 1 -12 4 -7 3 -8 -5 -4 -9 6 -9 11 1 23 8 10 14 11 16 4 3 -9 8 -8 20 1z"/>
<path d="M5316 5713 c-6 -14 -5 -15 5 -6 7 7 10 15 7 18 -3 3 -9 -2 -12 -12z"/>
<path d="M5353 5707 c0 -7 9 -14 20 -14 11 -1 18 -1 16 0 -2 2 -11 8 -20 15
-12 9 -16 9 -16 -1z"/>
<path d="M5275 5700 c-3 -5 -1 -10 4 -10 6 0 11 5 11 10 0 6 -2 10 -4 10 -3 0
-8 -4 -11 -10z"/>
<path d="M5310 5686 c0 -2 12 -12 28 -21 l27 -18 -19 21 c-17 20 -36 29 -36
18z"/>
<path d="M5370 5653 c0 -6 5 -15 10 -18 6 -3 10 -11 10 -17 0 -6 -7 -5 -17 3
-10 7 -7 1 6 -14 14 -15 25 -27 26 -27 1 0 1 13 1 29 0 17 -3 28 -7 25 -4 -2
-12 4 -18 13 -6 10 -11 13 -11 6z"/>
<path d="M5398 5653 c7 -3 16 -2 19 1 4 3 -2 6 -13 5 -11 0 -14 -3 -6 -6z"/>
<path d="M3855 5640 c-3 -5 -1 -10 4 -10 6 0 11 5 11 10 0 6 -2 10 -4 10 -3 0
-8 -4 -11 -10z"/>
<path d="M5426 5602 c3 -28 11 -38 21 -28 4 4 1 11 -7 16 -8 6 -10 10 -4 10 7
0 14 6 17 13 3 7 -3 13 -13 13 -12 0 -16 -7 -14 -24z"/>
<path d="M5492 5605 c-1 -13 2 -26 6 -29 4 -2 7 6 7 20 -2 32 -10 39 -13 9z"/>
<path d="M3894 5603 c3 -4 18 -8 32 -9 14 -2 24 0 20 3 -3 3 -17 7 -32 9 -14
1 -23 0 -20 -3z"/>
<path d="M5465 5599 c-4 -6 -5 -12 -2 -15 2 -3 7 2 10 11 7 17 1 20 -8 4z"/>
<path d="M3933 5545 c0 -8 4 -12 9 -9 5 3 6 10 3 15 -9 13 -12 11 -12 -6z"/>
<path d="M5506 5548 c3 -5 10 -6 15 -3 13 9 11 12 -6 12 -8 0 -12 -4 -9 -9z"/>
<path d="M5467 5525 c3 -8 9 -12 14 -9 12 7 11 11 -5 17 -10 4 -13 1 -9 -8z"/>
<path d="M4010 5500 c0 -5 5 -10 11 -10 5 0 7 5 4 10 -3 6 -8 10 -11 10 -2 0
-4 -4 -4 -10z"/>
<path d="M5590 5499 c0 -5 5 -7 10 -4 6 3 10 8 10 11 0 2 -4 4 -10 4 -5 0 -10
-5 -10 -11z"/>
<path d="M5600 5480 c-9 -6 -10 -10 -3 -10 6 0 15 5 18 10 8 12 4 12 -15 0z"/>
<path d="M4030 5446 c0 -2 7 -7 16 -10 8 -3 12 -2 9 4 -6 10 -25 14 -25 6z"/>
<path d="M5615 5440 c-3 -5 -1 -10 4 -10 6 0 11 5 11 10 0 6 -2 10 -4 10 -3 0
-8 -4 -11 -10z"/>
<path d="M5646 5438 c3 -5 10 -6 15 -3 13 9 11 12 -6 12 -8 0 -12 -4 -9 -9z"/>
<path d="M5596 5388 c3 -5 8 -7 11 -4 3 3 14 1 24 -5 13 -6 19 -6 19 1 0 5 -6
10 -12 11 -7 0 -21 2 -31 4 -9 2 -14 -1 -11 -7z"/>
<path d="M5686 5322 c-3 -5 1 -9 9 -9 8 0 12 4 9 9 -3 4 -7 8 -9 8 -2 0 -6 -4
-9 -8z"/>
<path d="M5706 5278 c3 -4 9 -8 15 -8 5 0 9 4 9 8 0 5 -7 9 -15 9 -8 0 -12 -4
-9 -9z"/>
<path d="M4690 4821 c0 -6 4 -13 10 -16 6 -3 7 1 4 9 -7 18 -14 21 -14 7z"/>
<path d="M4735 4780 c3 -5 8 -10 11 -10 2 0 4 5 4 10 0 6 -5 10 -11 10 -5 0
-7 -4 -4 -10z"/>
</g>
</svg>
